<svg xmlns="http://www.w3.org/2000/svg" viewBox="0 0 180 180">
  <defs>
    <linearGradient id="gold" x1="0%" y1="0%" x2="100%" y2="100%">
      <stop offset="0%" stop-color="#fff08a"/>
      <stop offset="40%" stop-color="#ffd700"/>
      <stop offset="100%" stop-color="#d6aa00"/>
    </linearGradient>
  </defs>
  <rect width="180" height="180" rx="36" fill="#050505"/>
  <g transform="translate(22 21)" fill="none" stroke="url(#gold)" stroke-width="9" stroke-linecap="square" stroke-linejoin="miter">
    <path d="M67 10H95L121 35V102L95 128H39L13 102V35L39 10H67" opacity="0.95"/>
    <path d="M87 35H57L40 52V79L57 96H76L89 83" />
    <path d="M69 67H92" />
    <path d="M61 35V118" />
    <path d="M61 35H88L100 47V61L88 73H61" />
    <path d="M33 94H88L104 110V118H33L18 102V35" opacity="0.92"/>
  </g>
</svg>
