<svg width="96" height="96" viewBox="0 0 96 96" fill="none" xmlns="http://www.w3.org/2000/svg">
  <rect x="8" y="8" width="80" height="80" rx="24" fill="url(#bg)" />
  <rect x="8.75" y="8.75" width="78.5" height="78.5" rx="23.25" stroke="url(#frame)" stroke-width="1.5" />
  <path
    d="M48 33H38C31.373 33 26 38.373 26 45V51C26 57.627 31.373 63 38 63H48V50H40"
    stroke="url(#metal)"
    stroke-width="6"
    stroke-linecap="round"
    stroke-linejoin="round"
  />
  <circle cx="65" cy="48" r="14" stroke="url(#accent)" stroke-width="6" />
  <path d="M55 22H74" stroke="url(#highlight)" stroke-width="2" stroke-linecap="round" />
  <path d="M22 74H41" stroke="url(#highlight)" stroke-width="2" stroke-linecap="round" opacity="0.72" />
  <circle cx="74" cy="22" r="2.5" fill="#56ECFF" />
  <defs>
    <linearGradient id="bg" x1="16" y1="12" x2="78" y2="84" gradientUnits="userSpaceOnUse">
      <stop stop-color="#15191F" />
      <stop offset="1" stop-color="#090A0C" />
    </linearGradient>
    <linearGradient id="frame" x1="14" y1="12" x2="84" y2="88" gradientUnits="userSpaceOnUse">
      <stop stop-color="#39424E" />
      <stop offset="0.55" stop-color="#20262D" />
      <stop offset="1" stop-color="#56ECFF" stop-opacity="0.7" />
    </linearGradient>
    <linearGradient id="metal" x1="24" y1="26" x2="54" y2="70" gradientUnits="userSpaceOnUse">
      <stop stop-color="#F5F7FB" />
      <stop offset="1" stop-color="#9EA6B2" />
    </linearGradient>
    <linearGradient id="accent" x1="51" y1="32" x2="79" y2="66" gradientUnits="userSpaceOnUse">
      <stop stop-color="#7DF4FF" />
      <stop offset="1" stop-color="#56ECFF" />
    </linearGradient>
    <linearGradient id="highlight" x1="22" y1="22" x2="74" y2="22" gradientUnits="userSpaceOnUse">
      <stop stop-color="#F5F7FB" stop-opacity="0.2" />
      <stop offset="1" stop-color="#F5F7FB" stop-opacity="0.8" />
    </linearGradient>
  </defs>
</svg>
